<svg xmlns="http://www.w3.org/2000/svg" xmlns:xlink="http://www.w3.org/1999/xlink" version="1.1" width="256" height="256" viewBox="0 0 256 256" xml:space="preserve">

<defs>
</defs>
<g style="stroke: none; stroke-width: 0; stroke-dasharray: none; stroke-linecap: butt; stroke-linejoin: miter; stroke-miterlimit: 10; fill: none; fill-rule: nonzero; opacity: 1;" transform="translate(1.4065934065934016 1.4065934065934016) scale(2.81 2.81)" >
	<path d="M 54.941 34.442 c 0 -5.482 -4.46 -9.942 -9.941 -9.942 c -5.482 0 -9.942 4.46 -9.942 9.942 s 4.46 9.942 9.942 9.942 C 50.481 44.384 54.941 39.924 54.941 34.442 z" style="stroke: none; stroke-width: 1; stroke-dasharray: none; stroke-linecap: butt; stroke-linejoin: miter; stroke-miterlimit: 10; fill: rgb(0,0,0); fill-rule: nonzero; opacity: 1;" transform=" matrix(1 0 0 1 0 0) " stroke-linecap="round" />
	<path d="M 45 0 C 20.147 0 0 20.147 0 45 c 0 24.853 20.147 45 45 45 s 45 -20.147 45 -45 C 90 20.147 69.853 0 45 0 z M 66.116 69.5 c -1.104 0 -2 -0.896 -2 -2 c 0 -10.541 -8.575 -19.116 -19.116 -19.116 S 25.883 56.959 25.883 67.5 c 0 1.104 -0.896 2 -2 2 s -2 -0.896 -2 -2 c 0 -9.925 6.289 -18.408 15.091 -21.677 c -3.573 -2.527 -5.916 -6.682 -5.916 -11.381 C 31.058 26.754 37.313 20.5 45 20.5 s 13.941 6.254 13.941 13.942 c 0 4.699 -2.343 8.854 -5.916 11.381 c 8.802 3.269 15.091 11.752 15.091 21.677 C 68.116 68.604 67.221 69.5 66.116 69.5 z" style="stroke: none; stroke-width: 1; stroke-dasharray: none; stroke-linecap: butt; stroke-linejoin: miter; stroke-miterlimit: 10; fill: rgb(0,0,0); fill-rule: nonzero; opacity: 1;" transform=" matrix(1 0 0 1 0 0) " stroke-linecap="round" />
</g>
</svg>