<svg xmlns="http://www.w3.org/2000/svg" xmlns:xlink="http://www.w3.org/1999/xlink" version="1.1" width="256" height="256" viewBox="0 0 256 256" xml:space="preserve">

<defs>
</defs>
<g style="stroke: none; stroke-width: 0; stroke-dasharray: none; stroke-linecap: butt; stroke-linejoin: miter; stroke-miterlimit: 10; fill: none; fill-rule: nonzero; opacity: 1;" transform="translate(1.4065934065934016 1.4065934065934016) scale(2.81 2.81)" >
	<path d="M 45 0 C 20.187 0 0 20.187 0 45 c 0 24.813 20.187 45 45 45 c 24.813 0 45 -20.187 45 -45 C 90 20.187 69.813 0 45 0 z M 32.532 15.891 c 4.017 0 7.286 3.269 7.286 7.286 c 0 4.018 -3.269 7.286 -7.286 7.286 s -7.286 -3.269 -7.286 -7.286 C 25.247 19.159 28.515 15.891 32.532 15.891 z M 32.511 71.152 c -6.617 0 -12 -5.383 -12 -12 s 5.383 -12 12 -12 s 12 5.383 12 12 S 39.128 71.152 32.511 71.152 z M 67.048 59.758 c -2.873 0 -5.21 -2.337 -5.21 -5.209 s 2.337 -5.209 5.21 -5.209 c 2.872 0 5.209 2.337 5.209 5.209 S 69.92 59.758 67.048 59.758 z M 68.577 22.618 c -4.988 0 -9.046 -4.058 -9.046 -9.046 c 0 -2.965 1.452 -5.725 3.883 -7.421 c 5.247 2.497 9.907 6.028 13.725 10.325 C 75.895 20.16 72.494 22.618 68.577 22.618 z" style="stroke: none; stroke-width: 1; stroke-dasharray: none; stroke-linecap: butt; stroke-linejoin: miter; stroke-miterlimit: 10; fill: rgb(0,0,0); fill-rule: nonzero; opacity: 1;" transform=" matrix(1 0 0 1 0 0) " stroke-linecap="round" />
</g>
</svg>